<svg xmlns="http://www.w3.org/2000/svg" xmlns:xlink="http://www.w3.org/1999/xlink" width="80" height="80" viewBox="0 0 80 80"><defs><style>.a{fill:#fff;}.b{clip-path:url(#a);}.c{fill:#99d33e;}</style><clipPath id="a"><rect class="a" width="80" height="80" transform="translate(268 239)"/></clipPath></defs><g class="b" transform="translate(-268 -239)"><g transform="translate(244.56 214.6)"><g transform="translate(31.44 28.4)"><path class="c" d="M67.575,104a5.086,5.086,0,0,1-2.817-.789l-8.789-5.183c-1.352-.789-.676-1.014-.225-1.127a20.433,20.433,0,0,0,3.944-1.8.531.531,0,0,1,.676.113l6.761,4.056a.963.963,0,0,0,.789,0L94.279,84.056a.926.926,0,0,0,.451-.676V52.958a.618.618,0,0,0-.451-.676L68.025,36.958a.962.962,0,0,0-.789,0L40.87,52.056a.926.926,0,0,0-.451.676V83.155a.7.7,0,0,0,.451.676L48.082,88c3.944,1.915,6.31-.338,6.31-2.7V55.437a.77.77,0,0,1,.789-.789h3.38a.77.77,0,0,1,.789.789V85.408c0,5.3-2.817,8.225-7.775,8.225-1.577,0-2.7,0-6.085-1.69L38.617,88A5.682,5.682,0,0,1,35.8,83.155V52.732a5.581,5.581,0,0,1,2.817-4.845L64.983,32.676a5.973,5.973,0,0,1,5.521,0L96.87,47.887a5.682,5.682,0,0,1,2.817,4.845V83.155A5.581,5.581,0,0,1,96.87,88L70.392,103.324A6.109,6.109,0,0,1,67.575,104Z" transform="translate(-35.8 -32)"/><path class="c" d="M72.872,80.583c-11.493,0-13.972-5.3-13.972-9.69a.77.77,0,0,1,.789-.789h3.38a.823.823,0,0,1,.789.676c.451,3.493,2.028,5.183,9.014,5.183,5.521,0,7.887-1.239,7.887-4.169,0-1.69-.676-2.93-9.352-3.831-7.211-.676-11.718-2.254-11.718-8.113,0-5.3,4.507-8.451,12.056-8.451,8.451,0,12.62,2.93,13.183,9.239a.77.77,0,0,1-.789.789h-3.38a.847.847,0,0,1-.789-.563c-.789-3.606-2.817-4.845-8.225-4.845-6.085,0-6.761,2.141-6.761,3.718,0,1.915.789,2.479,9.014,3.606,8.113,1.014,11.944,2.592,11.944,8.225C85.942,77.315,81.21,80.583,72.872,80.583Z" transform="translate(-32.872 -29.541)"/></g></g></g></svg>