<svg xmlns="http://www.w3.org/2000/svg" xmlns:xlink="http://www.w3.org/1999/xlink" width="40" height="40" viewBox="0 0 40 40"><defs><style>.a{fill:#fff;}.b{clip-path:url(#a);}.c{fill:#3249a8;}.d{fill:#c9d5f7;}</style><clipPath id="a"><rect class="a" width="40" height="40"/></clipPath></defs><g class="b"><circle class="c" cx="20" cy="20" r="20"/><g transform="translate(5.2 12.4)"><path class="d" d="M32.88,54.06a2.409,2.409,0,0,1,1.84.52c.32.32.36.92.2,1.72a2.907,2.907,0,0,1-.96,1.84,3.574,3.574,0,0,1-2.16.56H30.32l.88-4.64ZM27,63.38h2.4l.56-2.96h2.08a7.111,7.111,0,0,0,2.24-.28,4.388,4.388,0,0,0,1.6-.96,5.916,5.916,0,0,0,1-1.24,4.655,4.655,0,0,0,.52-1.48,3.536,3.536,0,0,0-.56-3.08A3.853,3.853,0,0,0,33.8,52.3H29.16Z" transform="translate(-27 -49.38)"/><path class="d" d="M55.8,45h2.4l-.56,2.96h2.12a4.012,4.012,0,0,1,2.76.72,2.237,2.237,0,0,1,.44,2.28l-1,5.16H59.52l.96-4.88c.12-.56.08-.92-.12-1.12a1.724,1.724,0,0,0-1.2-.32H57.24L56,56.12H53.6Z" transform="translate(-42.96 -45)"/><path class="d" d="M81.58,54.06a2.409,2.409,0,0,1,1.84.52c.32.32.36.92.2,1.72a2.907,2.907,0,0,1-.96,1.84,3.574,3.574,0,0,1-2.16.56H79.02l.88-4.64ZM75.7,63.38h2.4l.56-2.96h2.08a7.111,7.111,0,0,0,2.24-.28,4.388,4.388,0,0,0,1.6-.96,5.916,5.916,0,0,0,1-1.24,4.655,4.655,0,0,0,.52-1.48,3.536,3.536,0,0,0-.56-3.08A3.853,3.853,0,0,0,82.5,52.3H77.86Z" transform="translate(-56.22 -49.38)"/></g></g></svg>