<svg xmlns="http://www.w3.org/2000/svg" xmlns:xlink="http://www.w3.org/1999/xlink" width="80" height="80" viewBox="0 0 80 80"><defs><style>.a{fill:#fff;}.b{clip-path:url(#a);}.c{fill:#cf649a;}</style><clipPath id="a"><rect class="a" width="80" height="80" transform="translate(268 239)"/></clipPath></defs><g class="b" transform="translate(-268 -239)"><g transform="translate(241.999 165.465)"><g transform="translate(26.001 83.535)"><g transform="translate(0 0)"><path class="c" d="M94.872,118.015a16.4,16.4,0,0,0-7.248,1.687A15.4,15.4,0,0,1,86,115.941a10.048,10.048,0,0,1-.137-3.162,26.6,26.6,0,0,1,.95-3.4c-.012-.137-.175-.825-1.787-.837s-3,.312-3.162.737a15.321,15.321,0,0,0-.662,2.387c-.287,1.462-3.224,6.686-4.886,9.41a9.709,9.709,0,0,1-1.112-2.749,10.042,10.042,0,0,1-.137-3.162,26.615,26.615,0,0,1,.95-3.4c-.013-.137-.175-.825-1.787-.837s-3,.312-3.162.737-.337,1.425-.662,2.387-4.236,9.659-5.261,11.922c-.525,1.149-.975,2.074-1.3,2.7-.05.1-.087.162-.112.213.037-.062.063-.125.063-.1-.275.537-.438.837-.438.837v.012c-.213.4-.45.762-.562.762a5.181,5.181,0,0,1,.038-2.487c.587-3.024,1.974-7.723,1.962-7.885-.013-.087.262-.9-.912-1.337a1.471,1.471,0,0,0-1.649.275c-.1,0-.175.25-.175.25s1.262-5.3-2.424-5.3c-2.3,0-5.5,2.525-7.073,4.811-.987.537-3.124,1.7-5.374,2.937-.862.475-1.75.962-2.587,1.425-.062-.063-.113-.125-.175-.188-4.474-4.773-12.734-8.148-12.384-14.559.125-2.337.937-8.472,15.883-15.92,12.247-6.1,22.044-4.424,23.731-.7,2.424,5.311-5.236,15.2-17.958,16.62-4.849.537-7.4-1.337-8.035-2.037-.662-.737-.762-.775-1.012-.637-.413.225-.15.875,0,1.262a7.53,7.53,0,0,0,4.6,3.612c2.337.762,8.023,1.187,14.9-1.475,7.723-2.974,13.734-11.26,11.972-18.195-1.8-7.048-13.484-9.36-24.543-5.436-6.586,2.337-13.709,6.011-18.832,10.8-6.086,5.7-7.06,10.66-6.661,12.734,1.425,7.36,11.572,12.159,15.633,15.708-.2.113-.387.213-.562.313-2.037,1.012-9.772,5.061-11.709,9.335-2.187,4.849.362,8.322,2.037,8.8,5.224,1.449,10.572-1.162,13.446-5.449s2.524-9.885,1.2-12.434c-.013-.037-.038-.062-.05-.1.525-.312,1.062-.625,1.6-.937,1.037-.612,2.049-1.175,2.937-1.662a19.4,19.4,0,0,0-1.05,5.323c-.225,2.749.912,6.311,2.387,7.71a2.625,2.625,0,0,0,1.924.625c1.725,0,2.5-1.425,3.361-3.124,1.062-2.075,2-4.487,2-4.487s-1.175,6.524,2.037,6.524c1.175,0,2.35-1.512,2.874-2.287v.012s.025-.05.088-.15c.125-.188.187-.3.187-.3v-.038c.475-.812,1.512-2.674,3.074-5.748,2.025-3.974,3.961-8.935,3.961-8.935a25.114,25.114,0,0,0,.775,3.224,30.175,30.175,0,0,0,1.674,3.749c-.475.65-.762,1.025-.762,1.025a.039.039,0,0,0,.012.025c-.375.5-.8,1.038-1.237,1.562a43.9,43.9,0,0,0-3.749,4.7,1.276,1.276,0,0,0,.35,1.712,3.04,3.04,0,0,0,1.962.313,8.66,8.66,0,0,0,2.937-.675,10.268,10.268,0,0,0,2.524-1.324A5.64,5.64,0,0,0,78.364,127a10.347,10.347,0,0,0-.912-3.524c.138-.2.288-.413.425-.625a66.43,66.43,0,0,0,4.386-7.573,25.168,25.168,0,0,0,.775,3.224,22.057,22.057,0,0,0,1.425,3.212,13.735,13.735,0,0,0-4.261,5.511c-.925,2.662-.2,3.861,1.162,4.137a4.2,4.2,0,0,0,2.137-.438,9.92,9.92,0,0,0,2.7-1.387c1.562-1.149,3.074-2.762,2.974-4.949a9.3,9.3,0,0,0-.675-2.924,15.259,15.259,0,0,1,7.76-.9c6.961.812,8.323,5.161,8.06,6.973a4.586,4.586,0,0,1-2.212,3.124c-.488.3-.637.413-.6.637.062.325.287.313.7.237a5.429,5.429,0,0,0,3.786-4.836c.2-4.249-3.886-8.922-11.121-8.885ZM41.225,136.1c-2.3,2.512-5.523,3.462-6.91,2.662-1.487-.862-.9-4.561,1.937-7.236a37.037,37.037,0,0,1,5.424-4.049c.337-.2.825-.5,1.425-.862.1-.062.15-.087.15-.087.112-.075.237-.138.362-.213a9.972,9.972,0,0,1-2.387,9.785Zm16.8-11.422c-.8,1.962-2.487,6.961-3.511,6.7-.875-.225-1.412-4.036-.175-7.785a17.222,17.222,0,0,1,2.737-5.011c1.262-1.412,2.649-1.862,2.974-1.3.437.737-1.525,6.173-2.025,7.4ZM71.891,131.3c-.337.175-.65.287-.8.2-.112-.062.138-.3.138-.3s1.737-1.862,2.424-2.712c.4-.5.862-1.087,1.362-1.737,0,.062.012.125.012.2C75.015,129.187,72.866,130.7,71.891,131.3Zm10.7-2.437c-.25-.175-.213-.762.625-2.587a9.739,9.739,0,0,1,2.374-3.062,4.514,4.514,0,0,1,.237,1.349,4.406,4.406,0,0,1-3.236,4.3Z" transform="translate(-26.001 -83.535)"/></g></g></g></g></svg>